<?xml version="1.0" encoding="UTF-8" standalone="no"?>
<svg xmlns="http://www.w3.org/2000/svg" version="1.1" viewBox="0 0 34.978378 15.370958">
  <g transform="translate(-107.99891,-130.56452) matrix(0.35277777,0,0,-0.35277777,135.80385,143.10444)">
    <path d="m 0,0 c -1.842,-2.212 -4.22,-3.436 -6.694,-3.45 h -0.039 c -2.458,0 -4.829,1.198 -6.681,3.376 l -6.681,7.855 c -2.467,2.9 -5.717,4.496 -9.154,4.496 -3.427,0 -6.673,-1.596 -9.14,-4.496 l -6.68,-7.855 c -1.853,-2.178 -4.224,-3.376 -6.682,-3.376 h -0.039 c -2.474,0.014 -4.851,1.238 -6.689,3.446 l -0.247,0.296 18.808,24.817 c 2.343,3.086 5.33,5.05 8.596,5.671 0.472,0.081 0.944,0.133 1.377,0.17 0.469,0.027 0.954,0.023 1.353,0.005 0.466,-0.042 0.932,-0.094 1.376,-0.168 3.319,-0.633 6.31,-2.595 8.649,-5.675 L 0.233,0.284 Z M 18.018,12.46 C 13.68,12.408 9.602,10.663 6.226,7.414 6.164,7.355 6.106,7.292 6.051,7.225 L 3.294,3.901 -14.876,27.878 c -3.028,3.981 -7.116,6.613 -11.534,7.412 -0.596,0.102 -1.193,0.172 -1.912,0.231 -0.157,0.008 -0.305,0.014 -0.452,0.018 -0.441,0.014 -0.875,0.009 -1.527,-0.027 -0.596,-0.05 -1.192,-0.12 -1.812,-0.226 -0.002,0 -0.004,-0.001 -0.006,-0.001 -0.004,-10e-4 -0.009,-10e-4 -0.014,-0.002 -0.064,-0.012 -0.125,-0.033 -0.188,-0.046 -4.355,-0.846 -8.26,-3.38 -11.304,-7.364 L -61.778,3.902 -64.534,7.225 c -0.056,0.067 -0.114,0.13 -0.175,0.189 -3.376,3.249 -7.454,4.994 -11.793,5.046 -1.298,0.062 -2.3,-0.996 -2.315,-2.26 -0.015,-1.263 0.997,-2.3 2.26,-2.315 3.116,-0.037 6.082,-1.309 8.585,-3.682 l 4.527,-5.441 c 0.066,-0.079 0.145,-0.142 0.22,-0.211 l 1.226,-1.479 c 2.721,-3.267 6.338,-5.076 10.185,-5.097 h 0.065 c 3.82,0 7.428,1.769 10.165,4.987 l 6.68,7.855 c 1.583,1.86 3.591,2.885 5.655,2.885 2.073,0 4.086,-1.025 5.669,-2.885 l 6.68,-7.855 c 2.737,-3.218 6.344,-4.987 10.166,-4.987 h 0.064 c 3.847,0.021 7.465,1.83 10.197,5.112 l 1.16,1.415 c 0.096,0.082 0.192,0.162 0.274,0.26 l 4.527,5.441 c 2.503,2.373 5.47,3.645 8.585,3.682 1.263,0.015 2.275,1.052 2.261,2.315 -0.015,1.264 -1.088,2.298 -2.316,2.26" />
  </g>
</svg>
